<?xml version="1.0" encoding="utf-8"?>
<!-- Generator: Adobe Illustrator 28.0.0, SVG Export Plug-In . SVG Version: 6.00 Build 0)  -->
<svg version="1.1" xmlns="http://www.w3.org/2000/svg" xmlns:xlink="http://www.w3.org/1999/xlink" x="0px" y="0px"
	 viewBox="0 0 538.3 595.3" style="enable-background:new 0 0 538.3 595.3;" xml:space="preserve">
<style type="text/css">
	.st0{fill-rule:evenodd;clip-rule:evenodd;}
	.st1{fill-rule:evenodd;clip-rule:evenodd;fill:#221F1F;}
</style>
<g id="Layer_1">
	<g>
		<path class="st0" d="M221.5,328.4l1.4-7.1l7.1-0.7c2.8-0.4,4.6-2.5,5.7-6l19.1-72.2c0.4-1.1,0.7-1.8,0.7-2.8
			c0-2.1-1.8-3.5-5.3-3.9l-7.4-0.4l1.8-7.1h51.6l-1.4,7.1l-9.5,0.7c-2.5,0-4.2,2.1-5.3,6l-18.7,69c-0.7,2.5-1.1,4.2-1.1,5.3
			c0,2.1,1.1,3.5,3.5,3.9c1.1,0.4,2.8,0.7,6,0.7c10.3,0,18.7-2.5,25.1-6.7c6.4-4.2,12.7-12,18.7-23l6.7,1.4l-9.6,35.7H221.5z"/>
		<path class="st1" d="M269.2,472c-3.5-6.6-8.7-13.4-20-22.7c-7.9-6.1-17.5-8.7-26.7-10.7c-1.7-0.3-3.3-0.5-4.8-0.8
			c-2.4-0.4-4.8-0.7-7.5-1.3c-24.9-4.4-41.8-9.3-76.2-26.7c-37.2-18.6-60.2-44-68.2-75.7C53.3,285,75.6,219.3,132,138.9
			c0.4-0.5,1.5-2.1,1.5-2.1c0.7-0.9,1.3-1.8,1.9-2.6c9.4,1.7,30,7.9,36.7,10.4c3,1.2,6,2.4,8.8,3.5c6.7,2.6,12.4,4.8,19,7.9
			c3.2,2,6.9,3.8,10.1,5l3.5,1.3l31.8-23.1l0.2-0.2c1.3-1.1,15.4-10.7,23.5-15.7c8.2,5.1,22.3,14.7,23.5,15.7l0.4,0.4l31.5,22.9
			l3.6-1.3c3.1-1.2,6.9-3,10.1-5c6.6-3,12.3-5.3,18.9-7.8c2.9-1.1,5.8-2.3,9-3.5c7.7-2.8,27.6-8.8,36.6-10.4c0.6,0.9,1.3,1.8,2,2.7
			c0.6,0.7,1.1,1.5,1.6,2.1c56.4,80.5,78.8,146.2,66.3,195.3c-8,31.6-31,57.1-68.3,75.6c-34.5,17.4-51.3,22.3-75.9,26.6
			c-5,1.1-9.5,1.8-13.9,2.4c-11.7,2.3-19.5,5.5-25.5,10.4C277.8,458.6,272.9,465.1,269.2,472z M265.7,135
			c-13.6,7.4-47.7,36.3-56,44.3c-33.8,33.4-52,64.3-57.3,97.4c-7,42.4,17.9,83.1,74.1,120.9c4.2,3,31.2,19.6,40.2,22.8l2.3,0.8
			l2.3-0.8c9-3.1,36.1-19.8,40.4-22.9c56-37.7,80.9-78.4,73.9-120.8c-6.8-43.1-35.7-76.2-56.8-97.3c-9.3-8.9-43.3-37.3-56.4-44.4
			l-3.4-1.8L265.7,135z M395.8,144.1c-9.8,0.8-42.8,14.3-52,18.7l-0.3,0.1l-0.5,0.3l-9.5,6.8l5.9,5.9c1.1,1.1,2.4,2.3,3.7,3.6
			c1.4,1.3,2.8,2.6,4,3.9c23,22.7,51.3,58.3,55.6,98.7c6.2,62-21.2,84.9-50.2,109.1c-3.7,3.1-7.4,6.2-11.1,9.4l-16.7,14.6l22.1-2.2
			c5.8-0.6,14.8-3.1,27.6-7.8c9-3.4,16.5-6.6,23.7-10.2c29.3-15.2,48.1-37,56.1-65c15.5-54.5-13.2-119.5-40.1-164.3
			c-3.8-6.7-8.8-15.1-12.5-19.2l-2.3-2.6L395.8,144.1z M136.5,146.4c-2.9,3.2-6.3,8.8-9.2,13.7c-1.2,2-2.3,3.8-3.2,5.3
			c-26.9,45-55.7,110-40.2,164.5c8,28,26.8,49.9,56,65c7.3,3.7,14.8,6.9,23.8,10.3c12.7,4.7,21.8,7.3,27.6,7.8l21.9,2.2l-16.5-14.5
			c-3.8-3.3-7.6-6.6-11.5-9.8c-28.8-24.2-56-47-49.8-108.7c4.3-40.4,32.6-76,55.6-98.7c1.3-1.3,2.7-2.6,4.1-3.9
			c1.4-1.3,2.7-2.5,3.7-3.6l5.9-5.9l-9.7-7l-0.3-0.1c-9.5-4.6-42.5-18-52.2-18.9l-3.5-0.3L136.5,146.4z"/>
	</g>
</g>
<g id="Layer_2">
</g>
</svg>
