<?xml version="1.0" encoding="UTF-8"?><svg id="Layer_1" xmlns="http://www.w3.org/2000/svg" viewBox="0 0 356.34 23.26"><defs><style>.cls-1{fill:#2c2a29;fill-rule:evenodd;stroke-width:0px;}</style></defs><path class="cls-1" d="m341.34,22.71v-1.6s2.2-.11,2.2-.11c.82-.03,1.24-.26,1.24-.7,0-.21-.1-.5-.31-.85l-2-3.43h-11.44s-1.02,1.62-1.02,1.62c-.32.52-.49,1.04-.49,1.58,0,.67.37,1.14,1.08,1.42.72.28,1.92.44,3.6.48v1.6s-12.68,0-12.68,0v-1.6c1.31-.15,2.41-.56,3.31-1.24.82-.61,1.63-1.57,2.44-2.88L337.74.21h3.33s12.31,19.59,12.31,19.59c.5.81,1.49,1.24,2.96,1.3v1.6s-15,0-15,0h0Zm-4.4-16.08l-4.68,7.46h9.09s-4.4-7.46-4.4-7.46Zm-40.66,2.26c-.41-2.18-1.27-3.89-2.59-5.11-1.28-1.19-2.82-1.78-4.62-1.78-.82,0-1.35.11-1.61.34-.26.22-.39.63-.39,1.22v15.94c0,.63.13,1.04.39,1.25.3.23.93.34,1.87.34h2.18s0,1.63,0,1.63h-16.9s0-1.63,0-1.63h2.24c.95,0,1.56-.11,1.85-.34.24-.21.37-.63.37-1.25V3.55c0-.59-.11-.99-.32-1.19-.28-.25-.82-.37-1.64-.37-1.81,0-3.36.59-4.64,1.78-1.31,1.23-2.17,2.94-2.6,5.11h-2.22s.7-8.34.7-8.34h29.41s.72,8.34.72,8.34h-2.2Zm-68.2,13.81v-1.6s2.2-.11,2.2-.11c.83-.03,1.24-.26,1.24-.7,0-.21-.1-.5-.31-.85l-2-3.43h-11.44s-1.02,1.62-1.02,1.62c-.32.52-.48,1.04-.48,1.58,0,.67.36,1.14,1.08,1.42.72.28,1.92.44,3.61.48v1.6s-12.68,0-12.68,0v-1.6c1.31-.15,2.41-.56,3.31-1.24.82-.61,1.63-1.57,2.44-2.88L224.48.21h3.33s12.31,19.59,12.31,19.59c.51.81,1.5,1.24,2.96,1.3v1.6s-15,0-15,0h0Zm-4.4-16.08l-4.68,7.46h9.09s-4.4-7.46-4.4-7.46ZM182.29.55v1.6s-2.55,0-2.55,0c-.95,0-1.56.12-1.85.37-.24.21-.37.62-.37,1.25v15.72c0,.62.13,1.04.4,1.26.27.22.88.33,1.82.33h2.55s0,1.63,0,1.63h-17.54s0-1.63,0-1.63h2.46c.95,0,1.57-.11,1.88-.34.26-.2.39-.62.39-1.25V3.77c0-.63-.13-1.05-.37-1.26-.3-.24-.94-.36-1.9-.36h-2.46s0-1.6,0-1.6h17.54,0Zm-63.66,11.51v7.43c0,.64.15,1.06.45,1.27.31.21.9.32,1.78.32h2.39s0,1.63,0,1.63h-17.21s0-1.63,0-1.63h2.4c.9,0,1.51-.11,1.82-.33.31-.22.47-.64.47-1.26V3.77c0-.64-.16-1.07-.48-1.29-.32-.22-.92-.33-1.81-.33h-2.4s0-1.6,0-1.6h19.68c8,0,12,1.87,12,5.61,0,1.62-.87,2.91-2.62,3.87-1.74.97-4.19,1.49-7.34,1.56v.22c3.4.06,5.69,1.33,6.88,3.83.38,1.17.77,2.33,1.15,3.49.32.99.89,1.48,1.7,1.48,1.21,0,1.83-1.01,1.87-3.01h2.28s0,.24,0,.24c0,1.72-.66,3.05-1.96,3.99-1.3.95-3.14,1.42-5.49,1.42-3.23,0-5.38-.69-6.47-2.08-.48-.62-.77-1.39-.85-2.31-.03-.82-.06-1.64-.09-2.46-.14-1.74-.6-2.89-1.37-3.46-.85-.62-2.52-.93-5.01-.93-.76,0-1.36.01-1.78.03Zm0-8.24v6.61c.45.04,1.07.06,1.88.06,3.28,0,5.58-.29,6.92-.88,1.42-.63,2.14-1.75,2.14-3.36s-.59-2.64-1.76-3.25c-1.09-.57-3-.85-5.73-.85-1.35,0-2.19.05-2.51.15-.62.2-.94.71-.94,1.53Zm-58.27,7.81c0,6.6,2.64,9.91,7.91,9.91,5.29,0,7.93-3.3,7.93-9.91,0-6.61-2.64-9.92-7.93-9.92s-7.91,3.3-7.91,9.92Zm-8.92,0c0-3.34,1.52-6.1,4.55-8.28C59.09,1.12,63.17,0,68.26,0s9.26,1.14,12.4,3.41c2.98,2.14,4.47,4.89,4.47,8.22s-1.46,5.91-4.38,8c-3.34,2.4-7.5,3.6-12.49,3.6-4.91,0-9.01-1.18-12.31-3.53-3.01-2.14-4.51-4.82-4.51-8.06Zm-21.63,11.07H0s0-1.63,0-1.63h2.27c.94,0,1.56-.11,1.87-.34.27-.2.42-.62.42-1.25V3.77c0-.63-.13-1.05-.37-1.25-.29-.25-.91-.37-1.87-.37H0s0-1.6,0-1.6h17.67s0,1.59,0,1.59h-2.8c-.95,0-1.56.11-1.85.34-.29.23-.43.66-.43,1.27v15.63c0,.73.24,1.19.72,1.38.37.16,1.27.24,2.68.24,3.6,0,6.31-.51,8.13-1.54,1.82-1.02,3.17-2.79,4.04-5.3l2.24.15-.59,8.38Z"/></svg>