<svg width="44" height="44" viewBox="0 0 44 44" fill="none" xmlns="http://www.w3.org/2000/svg">
<path d="M21.5 0C12.3873 0 5 7.257 5 16.209C5 19.2028 5.5965 22.2948 7.30828 24.5234L21.5 43L35.6917 24.5234C37.2465 22.4992 38 18.9207 38 16.209C38 7.257 30.6127 0 21.5 0Z" fill="#EE1010"/>
<path d="M17.7009 12.6999V11.2749C17.7009 10.9481 17.7626 10.6413 17.8861 10.3544C18.0096 10.0627 18.1806 9.81003 18.3982 9.59723C18.611 9.37968 18.8637 9.20868 19.1553 9.08518C19.4422 8.96168 19.7491 8.89993 20.0759 8.89993C20.3428 8.89993 20.5974 8.94173 20.8406 9.02628C21.0838 9.11083 21.3061 9.22958 21.5085 9.38253C21.9146 9.06942 22.413 8.89971 22.9259 8.89993C23.3939 8.89784 23.8521 9.03501 24.242 9.294C24.6319 9.55299 24.936 9.9221 25.1156 10.3544C25.2391 10.6413 25.3009 10.9481 25.3009 11.2749V12.6999H26.2509C26.5028 12.6999 26.7444 12.8 26.9226 12.9782C27.1008 13.1563 27.2009 13.398 27.2009 13.6499V16.1114C26.7711 15.7488 26.227 15.55 25.6647 15.5499H23.4009V12.6999H24.3509V11.2749C24.3509 11.0773 24.3138 10.8911 24.2397 10.7182C24.1322 10.459 23.9496 10.2379 23.7155 10.0832C23.4814 9.92848 23.2064 9.84725 22.9259 9.84993C22.6342 9.84993 22.372 9.93163 22.1393 10.095C22.344 10.4545 22.4514 10.8612 22.4509 11.2749V15.5993C21.9138 15.7111 21.4317 16.0046 21.0856 16.4302C20.7395 16.8559 20.5507 17.3878 20.5509 17.9363V20.6714C20.5509 21.2955 20.796 21.8959 21.233 22.3415L22.9544 24.0999H18.6509C17.8969 24.0998 17.1738 23.8009 16.6397 23.2687C16.379 23.0086 16.1701 22.7014 16.0241 22.3633C15.874 22.0115 15.798 21.6325 15.8009 21.2499V13.6499C15.8009 13.398 15.9009 13.1563 16.0791 12.9782C16.2573 12.8 16.4989 12.6999 16.7509 12.6999H17.7009ZM21.5009 12.6999V11.2749C21.5009 11.0773 21.4638 10.8911 21.3897 10.7182C21.2822 10.459 21.0996 10.2379 20.8655 10.0832C20.6314 9.92848 20.3564 9.84725 20.0759 9.84993C19.8783 9.84993 19.6921 9.88698 19.5192 9.96108C19.26 10.0686 19.0388 10.2511 18.8841 10.4852C18.7294 10.7193 18.6482 10.9943 18.6509 11.2749V12.6999H21.5009ZM21.9113 21.6774C21.6479 21.4085 21.5005 21.0469 21.5009 20.6704V17.9363C21.5006 17.7478 21.5375 17.561 21.6095 17.3868C21.6815 17.2125 21.7871 17.0542 21.9203 16.9208C22.0536 16.7873 22.2118 16.6815 22.386 16.6093C22.5601 16.5371 22.7468 16.4999 22.9354 16.4999H25.6647C26.0476 16.4999 26.4143 16.6529 26.6831 16.9246L29.6348 19.9076C30.1991 20.4766 30.1877 21.3981 29.611 21.9539L26.8114 24.649C26.5392 24.9113 26.1743 25.0554 25.7964 25.0499C25.4184 25.0444 25.058 24.8897 24.7936 24.6196L21.9113 21.6765V21.6774ZM23.4009 19.1124C23.4009 19.3014 23.4759 19.4826 23.6095 19.6162C23.7432 19.7499 23.9244 19.8249 24.1134 19.8249C24.3023 19.8249 24.4835 19.7499 24.6172 19.6162C24.7508 19.4826 24.8259 19.3014 24.8259 19.1124C24.8259 18.9235 24.7508 18.7422 24.6172 18.6086C24.4835 18.475 24.3023 18.3999 24.1134 18.3999C23.9244 18.3999 23.7432 18.475 23.6095 18.6086C23.4759 18.7422 23.4009 18.9235 23.4009 19.1124Z" fill="white"/>
</svg>
